<svg width="48" height="48" viewBox="0 0 48 48" fill="none" xmlns="http://www.w3.org/2000/svg"><rect width="48" height="48" rx="24" fill="#789FD6"></rect><path d="M39 24C39.0011 22.8516 38.7196 21.7206 38.1803 20.7066C37.6411 19.6927 36.8607 18.827 35.9079 18.1859C34.9551 17.5448 33.8592 17.1479 32.7168 17.0303C31.5744 16.9127 30.4207 17.078 29.3573 17.5116C28.2938 17.9451 27.3534 18.6337 26.6189 19.5165C25.8844 20.3993 25.3784 21.4493 25.1455 22.5738C24.9126 23.6983 24.9599 24.8629 25.2833 25.9648C25.6067 27.0668 26.1963 28.0722 27 28.8925V36C26.9999 36.1705 27.0434 36.3383 27.1264 36.4873C27.2093 36.6363 27.329 36.7616 27.4741 36.8513C27.6192 36.941 27.7847 36.9921 27.9551 36.9997C28.1255 37.0074 28.295 36.9713 28.4475 36.895L32 35.1175L35.5525 36.895C35.705 36.9713 35.8745 37.0074 36.0449 36.9997C36.2153 36.9921 36.3808 36.941 36.5259 36.8513C36.671 36.7616 36.7907 36.6363 36.8736 36.4873C36.9566 36.3383 37.0001 36.1705 37 36V28.8925C38.2826 27.5871 39.0008 25.83 39 24ZM32 19C32.9889 19 33.9556 19.2932 34.7779 19.8427C35.6001 20.3921 36.241 21.173 36.6194 22.0866C36.9978 23.0002 37.0969 24.0055 36.9039 24.9755C36.711 25.9454 36.2348 26.8363 35.5355 27.5355C34.8363 28.2348 33.9454 28.711 32.9755 28.9039C32.0055 29.0969 31.0002 28.9978 30.0866 28.6194C29.173 28.241 28.3921 27.6001 27.8427 26.7779C27.2932 25.9556 27 24.9889 27 24C27 22.6739 27.5268 21.4021 28.4645 20.4645C29.4021 19.5268 30.6739 19 32 19ZM32.4475 33.105C32.3086 33.0355 32.1554 32.9993 32 32.9993C31.8446 32.9993 31.6914 33.0355 31.5525 33.105L29 34.3825V30.3237C29.9374 30.769 30.9622 31 32 31C33.0378 31 34.0626 30.769 35 30.3237V34.3825L32.4475 33.105ZM25 32C25 32.2652 24.8946 32.5196 24.7071 32.7071C24.5196 32.8946 24.2652 33 24 33H13C12.4696 33 11.9609 32.7893 11.5858 32.4142C11.2107 32.0391 11 31.5304 11 31V15C11 14.4696 11.2107 13.9609 11.5858 13.5858C11.9609 13.2107 12.4696 13 13 13H35C35.5304 13 36.0391 13.2107 36.4142 13.5858C36.7893 13.9609 37 14.4696 37 15C37 15.2652 36.8946 15.5196 36.7071 15.7071C36.5196 15.8946 36.2652 16 36 16C35.7348 16 35.4804 15.8946 35.2929 15.7071C35.1054 15.5196 35 15.2652 35 15H13V31H24C24.2652 31 24.5196 31.1054 24.7071 31.2929C24.8946 31.4804 25 31.7348 25 32ZM23 25C23 25.2652 22.8946 25.5196 22.7071 25.7071C22.5196 25.8946 22.2652 26 22 26H17C16.7348 26 16.4804 25.8946 16.2929 25.7071C16.1054 25.5196 16 25.2652 16 25C16 24.7348 16.1054 24.4804 16.2929 24.2929C16.4804 24.1054 16.7348 24 17 24H22C22.2652 24 22.5196 24.1054 22.7071 24.2929C22.8946 24.4804 23 24.7348 23 25ZM23 21C23 21.2652 22.8946 21.5196 22.7071 21.7071C22.5196 21.8946 22.2652 22 22 22H17C16.7348 22 16.4804 21.8946 16.2929 21.7071C16.1054 21.5196 16 21.2652 16 21C16 20.7348 16.1054 20.4804 16.2929 20.2929C16.4804 20.1054 16.7348 20 17 20H22C22.2652 20 22.5196 20.1054 22.7071 20.2929C22.8946 20.4804 23 20.7348 23 21Z" fill="white"></path></svg>