<svg width="48" height="48" viewBox="0 0 48 48" fill="none" xmlns="http://www.w3.org/2000/svg"><rect width="48" height="48" rx="24" fill="#7CC069"></rect><path d="M34.9738 22.7712C34.9359 22.611 34.8591 22.4625 34.75 22.3391C34.641 22.2157 34.5032 22.1211 34.3488 22.0637L27.1475 19.3625L28.98 10.1962C29.0215 9.98327 28.9926 9.76258 28.8977 9.56747C28.8028 9.37237 28.6469 9.21343 28.4538 9.11465C28.2606 9.01587 28.0405 8.9826 27.8267 9.01987C27.613 9.05713 27.4172 9.16292 27.2688 9.32125L13.2688 24.3212C13.1551 24.4411 13.0728 24.5872 13.0294 24.7465C12.9859 24.9059 12.9826 25.0735 13.0197 25.2345C13.0569 25.3954 13.1333 25.5447 13.2422 25.6689C13.3511 25.7931 13.4891 25.8884 13.6438 25.9462L20.8475 28.6475L19.02 37.8037C18.9785 38.0167 19.0074 38.2374 19.1024 38.4325C19.1973 38.6276 19.3531 38.7866 19.5463 38.8853C19.7395 38.9841 19.9596 39.0174 20.1733 38.9801C20.3871 38.9429 20.5829 38.8371 20.7313 38.6787L34.7313 23.6787C34.8429 23.5589 34.9234 23.4135 34.9657 23.2552C35.008 23.097 35.0108 22.9308 34.9738 22.7712ZM21.6713 34.75L22.98 28.2025C23.0269 27.9703 22.9898 27.729 22.8753 27.5216C22.7608 27.3142 22.5765 27.1542 22.355 27.07L15.75 24.5887L26.3275 13.2562L25.02 19.8037C24.9732 20.036 25.0103 20.2773 25.1248 20.4847C25.2392 20.6921 25.4236 20.8521 25.645 20.9362L32.245 23.4112L21.6713 34.75Z" fill="white"></path></svg>