<svg width="48" height="48" viewBox="0 0 48 48" fill="none" xmlns="http://www.w3.org/2000/svg"><rect width="48" height="48" rx="24" fill="#3CA8B8"></rect><path d="M36.6875 22.125L28.7587 19.25L25.875 11.3125C25.7329 10.9298 25.4771 10.5997 25.1419 10.3665C24.8067 10.1334 24.4082 10.0085 24 10.0085C23.5917 10.0085 23.1932 10.1334 22.858 10.3665C22.5228 10.5997 22.267 10.9298 22.125 11.3125L19.25 19.2413L11.3125 22.125C10.9297 22.2671 10.5996 22.5229 10.3665 22.8581C10.1334 23.1933 10.0084 23.5917 10.0084 24C10.0084 24.4083 10.1334 24.8068 10.3665 25.142C10.5996 25.4771 10.9297 25.7329 11.3125 25.875L19.2412 28.75L22.125 36.6875C22.267 37.0703 22.5228 37.4004 22.858 37.6335C23.1932 37.8666 23.5917 37.9915 24 37.9915C24.4082 37.9915 24.8067 37.8666 25.1419 37.6335C25.4771 37.4004 25.7329 37.0703 25.875 36.6875L28.7587 28.7575L36.6875 25.875C37.0702 25.7329 37.4003 25.4771 37.6334 25.142C37.8665 24.8068 37.9915 24.4083 37.9915 24C37.9915 23.5917 37.8665 23.1933 37.6334 22.8581C37.4003 22.5229 37.0702 22.2671 36.6875 22.125ZM28.0712 26.875C27.7976 26.9749 27.5491 27.1334 27.3431 27.3394C27.1371 27.5454 26.9786 27.7939 26.8787 28.0675L24 35.9875L21.125 28.0713C21.0251 27.7966 20.8662 27.5471 20.6595 27.3404C20.4529 27.1337 20.2034 26.9749 19.9287 26.875L12.0125 24L19.9287 21.125C20.2034 21.0251 20.4529 20.8663 20.6595 20.6596C20.8662 20.4529 21.0251 20.2035 21.125 19.9288L24 12.0125L26.875 19.9288C26.9749 20.2024 27.1334 20.4509 27.3394 20.6569C27.5453 20.8628 27.7938 21.0213 28.0675 21.1213L35.9837 23.9963L28.0712 26.875Z" fill="white"></path></svg>