<svg width="48" height="48" viewBox="0 0 48 48" fill="none" xmlns="http://www.w3.org/2000/svg"><rect width="48" height="48" rx="24" fill="#D38A51"></rect><path d="M38.6387 15.585C37.6825 13.9363 35.1587 13.565 31.3262 14.5025C29.5519 13.1306 27.4284 12.2837 25.1969 12.0582C22.9654 11.8327 20.7154 12.2375 18.7025 13.2268C16.6896 14.216 14.9944 15.7499 13.8096 17.6543C12.6248 19.5587 11.9979 21.7571 12 24C12.0001 24.5145 12.0327 25.0284 12.0975 25.5388C8.63622 29.125 8.68622 31.25 9.36247 32.415C9.99997 33.52 11.33 34 13.08 34C14.295 33.9749 15.5029 33.8071 16.6787 33.5C18.4532 34.8706 20.5765 35.7162 22.8074 35.9409C25.0383 36.1655 27.2876 35.7601 29.2997 34.7708C31.3118 33.7815 33.0063 32.2478 34.1906 30.3439C35.375 28.44 36.0018 26.2422 36 24C36.0002 23.4881 35.9681 22.9766 35.9037 22.4688C37.4662 20.8438 38.5062 19.3 38.86 17.9788C39.1037 17.0638 39.03 16.2588 38.6387 15.585ZM24 14C26.2649 14.0023 28.4622 14.7724 30.233 16.1845C32.0038 17.5967 33.2436 19.5674 33.75 21.775C31.6175 23.7825 28.7312 25.8413 25.9912 27.4163C22.5475 29.3925 19.56 30.625 17.1775 31.3C15.7101 29.9314 14.6887 28.1527 14.2463 26.1955C13.8039 24.2383 13.961 22.1933 14.6972 20.3266C15.4333 18.4599 16.7144 16.8581 18.3736 15.7297C20.0329 14.6013 21.9934 13.9986 24 14ZM11.0925 31.4113C10.91 31.0975 11.0112 30.5063 11.37 29.7863C11.7247 29.1117 12.1564 28.4804 12.6562 27.905C13.1517 29.3406 13.9152 30.6691 14.9062 31.82C12.75 32.1825 11.405 31.9513 11.0925 31.4113ZM24 34C22.3139 34.0017 20.6551 33.5741 19.18 32.7575C21.8876 31.7999 24.5001 30.5922 26.9837 29.15C29.6812 27.6013 32.0687 25.9225 33.9925 24.265C33.9212 26.8689 32.8376 29.3425 30.9718 31.1603C29.1059 32.978 26.6049 33.9967 24 34ZM36.9275 17.4613C36.715 18.25 36.1537 19.1525 35.3487 20.1025C34.8545 18.6652 34.0909 17.3352 33.0987 16.1838C34.875 15.89 36.52 15.9125 36.9112 16.5888C37.0237 16.785 37.03 17.0788 36.9275 17.4613Z" fill="white"></path></svg>