<svg width="48" height="48" viewBox="0 0 48 48" fill="none" xmlns="http://www.w3.org/2000/svg"><rect width="48" height="48" rx="24" fill="#11B181"></rect><path d="M38 34.0001H36V20.0001C36 19.4696 35.7893 18.9609 35.4142 18.5859C35.0391 18.2108 34.5304 18.0001 34 18.0001H26V12.0001C26.0002 11.6379 25.9021 11.2825 25.7161 10.9717C25.5301 10.6609 25.2633 10.4065 24.944 10.2356C24.6247 10.0646 24.265 9.9836 23.9032 10.0011C23.5415 10.0186 23.1913 10.1341 22.89 10.3351L12.89 17.0001C12.6157 17.1831 12.3909 17.4311 12.2356 17.7221C12.0803 18.013 11.9994 18.3378 12 18.6676V34.0001H10C9.73478 34.0001 9.48043 34.1054 9.29289 34.293C9.10536 34.4805 9 34.7349 9 35.0001C9 35.2653 9.10536 35.5197 9.29289 35.7072C9.48043 35.8947 9.73478 36.0001 10 36.0001H38C38.2652 36.0001 38.5196 35.8947 38.7071 35.7072C38.8946 35.5197 39 35.2653 39 35.0001C39 34.7349 38.8946 34.4805 38.7071 34.293C38.5196 34.1054 38.2652 34.0001 38 34.0001ZM34 20.0001V34.0001H26V20.0001H34ZM14 18.6676L24 12.0001V34.0001H14V18.6676ZM22 22.0001V24.0001C22 24.2653 21.8946 24.5197 21.7071 24.7072C21.5196 24.8947 21.2652 25.0001 21 25.0001C20.7348 25.0001 20.4804 24.8947 20.2929 24.7072C20.1054 24.5197 20 24.2653 20 24.0001V22.0001C20 21.7349 20.1054 21.4805 20.2929 21.293C20.4804 21.1054 20.7348 21.0001 21 21.0001C21.2652 21.0001 21.5196 21.1054 21.7071 21.293C21.8946 21.4805 22 21.7349 22 22.0001ZM18 22.0001V24.0001C18 24.2653 17.8946 24.5197 17.7071 24.7072C17.5196 24.8947 17.2652 25.0001 17 25.0001C16.7348 25.0001 16.4804 24.8947 16.2929 24.7072C16.1054 24.5197 16 24.2653 16 24.0001V22.0001C16 21.7349 16.1054 21.4805 16.2929 21.293C16.4804 21.1054 16.7348 21.0001 17 21.0001C17.2652 21.0001 17.5196 21.1054 17.7071 21.293C17.8946 21.4805 18 21.7349 18 22.0001ZM18 29.0001V31.0001C18 31.2653 17.8946 31.5197 17.7071 31.7072C17.5196 31.8947 17.2652 32.0001 17 32.0001C16.7348 32.0001 16.4804 31.8947 16.2929 31.7072C16.1054 31.5197 16 31.2653 16 31.0001V29.0001C16 28.7349 16.1054 28.4805 16.2929 28.293C16.4804 28.1054 16.7348 28.0001 17 28.0001C17.2652 28.0001 17.5196 28.1054 17.7071 28.293C17.8946 28.4805 18 28.7349 18 29.0001ZM22 29.0001V31.0001C22 31.2653 21.8946 31.5197 21.7071 31.7072C21.5196 31.8947 21.2652 32.0001 21 32.0001C20.7348 32.0001 20.4804 31.8947 20.2929 31.7072C20.1054 31.5197 20 31.2653 20 31.0001V29.0001C20 28.7349 20.1054 28.4805 20.2929 28.293C20.4804 28.1054 20.7348 28.0001 21 28.0001C21.2652 28.0001 21.5196 28.1054 21.7071 28.293C21.8946 28.4805 22 28.7349 22 29.0001Z" fill="white"></path></svg>