<svg width="48" height="48" viewBox="0 0 48 48" fill="none" xmlns="http://www.w3.org/2000/svg"><rect width="48" height="48" rx="24" fill="#11B181"></rect><path d="M29.7237 14.4351C28.1693 12.7969 26.42 11.3554 24.515 10.1426C24.3595 10.0491 24.1814 9.99976 24 9.99976C23.8186 9.99976 23.6405 10.0491 23.485 10.1426C21.58 11.3554 19.8307 12.7969 18.2762 14.4351C14.8237 18.0601 13 22.0588 13 26.0001C13 28.9174 14.1589 31.7153 16.2218 33.7782C18.2847 35.8411 21.0826 37.0001 24 37.0001C26.9174 37.0001 29.7153 35.8411 31.7782 33.7782C33.8411 31.7153 35 28.9174 35 26.0001C35 22.0588 33.1762 18.0601 29.7237 14.4351ZM20 31.0001C20 27.5413 22.8162 25.0901 24 24.2126C25.185 25.0876 28 27.5413 28 31.0001C28 32.0609 27.5786 33.0783 26.8284 33.8285C26.0783 34.5786 25.0609 35.0001 24 35.0001C22.9391 35.0001 21.9217 34.5786 21.1716 33.8285C20.4214 33.0783 20 32.0609 20 31.0001ZM29.6588 32.9913C29.8847 32.3517 30.0001 31.6784 30 31.0001C30 25.5001 24.7387 22.2763 24.515 22.1426C24.3595 22.0491 24.1814 21.9998 24 21.9998C23.8186 21.9998 23.6405 22.0491 23.485 22.1426C23.2612 22.2763 18 25.5001 18 31.0001C17.9999 31.6784 18.1153 32.3517 18.3413 32.9913C17.298 32.1491 16.4564 31.0841 15.8782 29.8744C15.3001 28.6646 15 27.3409 15 26.0001C15 21.6988 17.55 18.1063 19.69 15.8513C20.9948 14.4844 22.4394 13.2581 24 12.1926C25.5609 13.2578 27.0055 14.4841 28.31 15.8513C32.1862 19.9376 33 23.6251 33 26.0001C33 27.3409 32.6999 28.6646 32.1218 29.8744C31.5436 31.0841 30.702 32.1491 29.6588 32.9913Z" fill="white"></path></svg>