<svg width="48" height="48" viewBox="0 0 48 48" fill="none" xmlns="http://www.w3.org/2000/svg"><rect width="48" height="48" rx="24" fill="#11B181"></rect><path d="M38.6 26.7999C38.495 26.8787 38.3754 26.936 38.2482 26.9686C38.121 27.0012 37.9886 27.0084 37.8586 26.9898C37.7286 26.9713 37.6035 26.9273 37.4905 26.8604C37.3775 26.7935 37.2788 26.705 37.2 26.5999C36.5973 25.7897 35.8127 25.1324 34.9096 24.6808C34.0064 24.2292 33.0098 23.996 32 23.9999C31.8034 23.9999 31.6111 23.9419 31.4472 23.8332C31.2834 23.7244 31.1552 23.5698 31.0788 23.3886C31.0269 23.2656 31.0001 23.1334 31.0001 22.9999C31.0001 22.8664 31.0269 22.7342 31.0788 22.6111C31.1552 22.43 31.2834 22.2754 31.4472 22.1666C31.6111 22.0579 31.8034 21.9999 32 21.9999C32.5611 21.9998 33.1109 21.8424 33.5871 21.5456C34.0632 21.2487 34.4465 20.8243 34.6935 20.3204C34.9405 19.8166 35.0412 19.2537 34.9843 18.6955C34.9273 18.1373 34.715 17.6062 34.3714 17.1627C34.0278 16.7191 33.5666 16.3808 33.0404 16.1862C32.5141 15.9915 31.9439 15.9484 31.3943 16.0616C30.8448 16.1749 30.338 16.4399 29.9315 16.8268C29.5251 17.2136 29.2353 17.7066 29.095 18.2499C29.0622 18.3771 29.0046 18.4966 28.9256 18.6016C28.8466 18.7066 28.7477 18.7949 28.6345 18.8617C28.5213 18.9284 28.3961 18.9722 28.266 18.9906C28.1359 19.0089 28.0035 19.0015 27.8763 18.9686C27.749 18.9358 27.6295 18.8783 27.5246 18.7992C27.4196 18.7202 27.3312 18.6213 27.2645 18.5081C27.1977 18.395 27.1539 18.2697 27.1356 18.1397C27.1172 18.0096 27.1247 17.8771 27.1575 17.7499C27.3522 16.9965 27.72 16.299 28.2318 15.7128C28.7435 15.1267 29.3849 14.668 30.1051 14.3733C30.8252 14.0787 31.6042 13.9562 32.3801 14.0156C33.1559 14.0749 33.9072 14.3146 34.5741 14.7154C35.241 15.1162 35.8052 15.6672 36.2217 16.3244C36.6383 16.9817 36.8957 17.727 36.9734 18.5012C37.0512 19.2755 36.9472 20.0571 36.6697 20.7841C36.3922 21.511 35.9489 22.1632 35.375 22.6886C36.7348 23.2774 37.9168 24.2117 38.8038 25.3986C38.8826 25.504 38.9398 25.6238 38.9722 25.7513C39.0046 25.8788 39.0115 26.0114 38.9926 26.1415C38.9737 26.2717 38.9293 26.3969 38.8619 26.5098C38.7945 26.6228 38.7055 26.7214 38.6 26.7999ZM31.865 34.4999C31.9374 34.6137 31.986 34.741 32.0078 34.8741C32.0297 35.0072 32.0245 35.1433 31.9924 35.2743C31.9603 35.4053 31.902 35.5284 31.8211 35.6363C31.7402 35.7442 31.6383 35.8346 31.5215 35.9021C31.4048 35.9696 31.2756 36.0128 31.1417 36.0291C31.0078 36.0453 30.872 36.0343 30.7425 35.9968C30.6129 35.9592 30.4924 35.8958 30.388 35.8104C30.2836 35.725 30.1975 35.6194 30.135 35.4999C29.5051 34.4332 28.6079 33.5492 27.532 32.9352C26.4562 32.3211 25.2388 31.9981 24 31.9981C22.7612 31.9981 21.5438 32.3211 20.468 32.9352C19.3921 33.5492 18.495 34.4332 17.865 35.4999C17.8025 35.6194 17.7165 35.725 17.6121 35.8104C17.5077 35.8958 17.3871 35.9592 17.2576 35.9968C17.128 36.0343 16.9922 36.0453 16.8583 36.0291C16.7245 36.0128 16.5952 35.9696 16.4785 35.9021C16.3617 35.8346 16.2598 35.7442 16.1789 35.6363C16.098 35.5284 16.0397 35.4053 16.0076 35.2743C15.9756 35.1433 15.9703 35.0072 15.9922 34.8741C16.0141 34.741 16.0627 34.6137 16.135 34.4999C17.1045 32.8341 18.5828 31.5232 20.3525 30.7599C19.3567 29.9974 18.6248 28.9421 18.2598 27.7422C17.8947 26.5423 17.9149 25.2581 18.3174 24.0703C18.7199 22.8824 19.4846 21.8506 20.5038 21.1197C21.5231 20.3889 22.7458 19.9959 24 19.9959C25.2542 19.9959 26.4769 20.3889 27.4962 21.1197C28.5155 21.8506 29.2801 22.8824 29.6826 24.0703C30.0851 25.2581 30.1053 26.5423 29.7403 27.7422C29.3752 28.9421 28.6434 29.9974 27.6475 30.7599C29.4173 31.5232 30.8955 32.8341 31.865 34.4999ZM24 29.9999C24.7911 29.9999 25.5645 29.7653 26.2223 29.3258C26.8801 28.8863 27.3928 28.2615 27.6955 27.5306C27.9983 26.7997 28.0775 25.9955 27.9232 25.2195C27.7688 24.4436 27.3878 23.7309 26.8284 23.1715C26.269 22.6121 25.5563 22.2311 24.7804 22.0768C24.0045 21.9224 23.2002 22.0016 22.4693 22.3044C21.7384 22.6071 21.1137 23.1198 20.6741 23.7776C20.2346 24.4354 20 25.2088 20 25.9999C20 27.0608 20.4214 28.0782 21.1716 28.8283C21.9217 29.5785 22.9391 29.9999 24 29.9999ZM17 22.9999C17 22.7347 16.8947 22.4803 16.7071 22.2928C16.5196 22.1053 16.2652 21.9999 16 21.9999C15.4389 21.9998 14.8891 21.8424 14.413 21.5456C13.9369 21.2487 13.5535 20.8243 13.3066 20.3204C13.0596 19.8166 12.9588 19.2537 13.0158 18.6955C13.0727 18.1373 13.285 17.6062 13.6286 17.1627C13.9723 16.7191 14.4334 16.3808 14.9596 16.1862C15.4859 15.9915 16.0562 15.9484 16.6057 16.0616C17.1553 16.1749 17.662 16.4399 18.0685 16.8268C18.4749 17.2136 18.7647 17.7066 18.905 18.2499C18.9713 18.5068 19.137 18.7269 19.3655 18.8617C19.5941 18.9965 19.8668 19.035 20.1238 18.9686C20.3807 18.9023 20.6008 18.7367 20.7355 18.5081C20.8703 18.2796 20.9088 18.0068 20.8425 17.7499C20.6478 16.9965 20.28 16.299 19.7683 15.7128C19.2566 15.1267 18.6151 14.668 17.895 14.3733C17.1748 14.0787 16.3958 13.9562 15.62 14.0156C14.8441 14.0749 14.0928 14.3146 13.4259 14.7154C12.759 15.1162 12.1948 15.6672 11.7783 16.3244C11.3618 16.9817 11.1044 17.727 11.0266 18.5012C10.9488 19.2755 11.0528 20.0571 11.3303 20.7841C11.6078 21.511 12.0511 22.1632 12.625 22.6886C11.2666 23.278 10.0859 24.2122 9.20001 25.3986C9.04072 25.6108 8.97223 25.8776 9.00962 26.1403C9.04701 26.4029 9.18721 26.64 9.39939 26.7993C9.61156 26.9586 9.87832 27.0271 10.141 26.9897C10.4037 26.9523 10.6407 26.8121 10.8 26.5999C11.4027 25.7897 12.1873 25.1324 13.0905 24.6808C13.9936 24.2292 14.9902 23.996 16 23.9999C16.2652 23.9999 16.5196 23.8945 16.7071 23.707C16.8947 23.5195 17 23.2651 17 22.9999Z" fill="white"></path></svg>